<?xml version="1.0" encoding="utf-8"?>
<!-- Generator: Adobe Illustrator 25.2.1, SVG Export Plug-In . SVG Version: 6.00 Build 0)  -->
<svg version="1.1" id="Layer_1" xmlns="http://www.w3.org/2000/svg" xmlns:xlink="http://www.w3.org/1999/xlink" x="0px" y="0px"
	 viewBox="0 0 407.8 98" style="enable-background:new 0 0 407.8 98;" xml:space="preserve">
<style type="text/css">
	@import url("https://use.typekit.net/idw8geh.css");
	.st0{opacity:0.6;enable-background:new    ;}
	.st1{font-family: NightBits;}
	.st2{font-size:49px;}
	.st3{fill:#231F20;}
	.st4{opacity:0.6;fill:none;stroke:#000000;stroke-width:5.3717;stroke-miterlimit:10;enable-background:new    ;}
	.st5{fill:none;stroke:#00A14B;stroke-width:5.3717;stroke-miterlimit:10;}
	.st6{opacity:0.6;fill:#231F20;enable-background:new    ;}
	.st7{fill:none;stroke:#1C75BC;stroke-width:5.3717;stroke-miterlimit:10;}
</style>
<g>
	<g>
		<text transform="matrix(1 0 0 1 16.3083 61.4864)" class="st0 st1 st2">GISI</text>
		<text transform="matrix(1 0 0 1 17.6487 59.9044)" class="st3 st1 st2">GISI</text>
		<circle class="st4" cx="114.5" cy="78.6" r="5.1"/>
		<circle class="st4" cx="77.3" cy="78.6" r="5.1"/>
		<line class="st4" x1="85.9" y1="78.5" x2="105.7" y2="78.5"/>
		<line class="st5" x1="85.9" y1="76.7" x2="105.7" y2="76.7"/>
		<circle class="st5" cx="77.3" cy="77" r="5.1"/>
		<circle class="st5" cx="114.5" cy="77" r="5.1"/>
		<line class="st4" x1="128.7" y1="18.2" x2="97.7" y2="18.2"/>
		<line class="st5" x1="128.7" y1="16.5" x2="97.7" y2="16.5"/>
		<line class="st4" x1="114.5" y1="17.7" x2="114.7" y2="68.6"/>
		<line class="st5" x1="114.5" y1="15.9" x2="114.7" y2="66.8"/>
		<text transform="matrix(1 0 0 1 124.0792 59.9046)" class="st3 st1 st2">O</text>
		<text transform="matrix(1 0 0 1 122.1574 61.4861)" class="st6 st1 st2">O</text>
	</g>
	<g>
		<text id="SCOO_ERS" transform="matrix(1 0 0 1 166.215 59.9044)" class="st0 st1 st2">SCOO</text>
		<text transform="matrix(1 0 0 1 167.2687 58.6036)" class="st3 st1 st2">SCOO</text>
		<line class="st4" x1="290.5" y1="16.2" x2="290.7" y2="67.1"/>
		<line class="st4" x1="304.7" y1="16.8" x2="273.7" y2="16.8"/>
		<line class="st4" x1="261.9" y1="77.1" x2="281.7" y2="77.1"/>
		<circle class="st4" cx="290.3" cy="77.1" r="5.1"/>
		<circle class="st4" cx="253.2" cy="77.1" r="5.1"/>
		<line class="st7" x1="290.5" y1="14.4" x2="290.7" y2="65.3"/>
		<line class="st7" x1="304.7" y1="15" x2="273.7" y2="15"/>
		<line class="st7" x1="261.9" y1="75.3" x2="281.7" y2="75.3"/>
		<circle class="st7" cx="253.4" cy="75.7" r="5.1"/>
		<circle class="st7" cx="290.5" cy="75.7" r="5.1"/>
		<text transform="matrix(1 0 0 1 298.2493 58.6039)" class="st3 st1 st2">ERS</text>
		<text transform="matrix(1 0 0 1 296.7751 59.9047)" class="st6 st1 st2">ERS</text>
	</g>
</g>
</svg>
