<?xml version="1.0" encoding="utf-8"?>
<!-- Generator: Adobe Illustrator 25.2.3, SVG Export Plug-In . SVG Version: 6.00 Build 0)  -->
<svg version="1.1" id="Lag_1" xmlns="http://www.w3.org/2000/svg" xmlns:xlink="http://www.w3.org/1999/xlink" x="0px" y="0px"
	 viewBox="0 0 512 512" style="enable-background:new 0 0 512 512;" xml:space="preserve">
<style type="text/css">
	.st0{fill:#FFFFFF;}
	.st1{display:none;fill:#009640;}
	.st2{fill:#006837;}
	.st3{fill:#A10A02;}
	.st4{fill:none;stroke:#A10A02;stroke-width:12;stroke-miterlimit:10;}
	.st5{fill:none;stroke:#A10A02;stroke-width:12.0002;stroke-miterlimit:10.0002;}
</style>
<path class="st0" d="M451.9,512H60.1C26.9,512,0,485.1,0,451.9V60.1C0,26.9,26.9,0,60.1,0H452c33.1,0,60,26.9,60,60.1V452
	C512,485.1,485.1,512,451.9,512z"/>
<g>
	<g>
		<g>
			<path class="st1" d="M149.6,191.2c-5.1,3.4-9.9,7.1-14.6,11.1l-6.9-8.8l14.4-11.3L149.6,191.2z"/>
			<path class="st1" d="M242.2,157.9v8.1c-2.8-0.1-5.7-0.2-8.5-0.2c-2.4,0-4.8,0.1-7.2,0.2v-8.1H242.2L242.2,157.9z"/>
			<rect x="205.2" y="135.9" class="st1" width="58.3" height="21.9"/>
			<path class="st2" d="M331.4,201.4c-4.7-3.9-9.5-7.6-14.7-10.9c-21.6-14.2-47.1-23-74.5-24.5c-2.8-0.1-5.7-0.2-8.5-0.2
				c-2.4,0-4.8,0.1-7.2,0.2c-28.4,1.3-54.7,10.4-76.9,25.3c-5.1,3.4-9.9,7.1-14.6,11.1c-32.4,27.8-53,69.1-53,115.2
				c0,83.8,67.9,151.7,151.7,151.7s151.7-67.9,151.7-151.7C385.3,270.9,364.4,229.2,331.4,201.4z M233.6,440.2
				c-67.8,0-122.7-55-122.7-122.7c0-67.8,55-122.7,122.7-122.7s122.7,54.9,122.7,122.7C356.4,385.2,301.4,440.2,233.6,440.2z"/>
			<path class="st1" d="M340.6,196.4l-6.3,8c-4.7-3.9-9.5-7.6-14.7-10.9l6.6-8.4L340.6,196.4z"/>
		</g>
	</g>
	<g>
		<g>
			
				<rect x="315.4" y="217.6" transform="matrix(0.728 -0.6856 0.6856 0.728 -73.9875 298.7148)" class="st0" width="48.1" height="50"/>
			<path class="st3" d="M234.5,357.2L234.5,357.2c-5,4.8-13,4.5-17.7-0.5l-41.3-43.8c-4.8-5-4.5-13,0.5-17.7l0,0
				c5-4.8,13-4.5,17.7,0.5l41.3,43.8C239.8,344.5,239.5,352.5,234.5,357.2z"/>
			<path class="st3" d="M217.3,357.3L217.3,357.3c-4.4-4.7-4.2-12.1,0.5-16.6l176.8-166.5c4.7-4.4,12.1-4.2,16.6,0.5l0,0
				c4.4,4.7,4.2,12.1-0.5,16.6L233.9,357.8C229.2,362.2,221.8,362,217.3,357.3z"/>
			<circle class="st4" cx="406.4" cy="178.9" r="23.7"/>
		</g>
		<ellipse class="st5" cx="237.7" cy="66.6" rx="23.7" ry="23.7"/>
		<path class="st3" d="M360.1,227.4L360.1,227.4c-6.1-0.1-10.9-5.1-10.8-11.2l1.2-67.8c0.1-6.1,5.1-10.9,11.2-10.8l0,0
			c6.1,0.1,10.9,5.1,10.8,11.2l-1.2,67.8C371.2,222.6,366.2,227.5,360.1,227.4z"/>
		<path class="st3" d="M371,155.4L371,155.4c-3.5,5.3-10.6,6.7-15.9,3.2L236.2,79.4c-5.3-3.5-6.7-10.6-3.2-15.9l0,0
			c3.5-5.3,10.6-6.7,15.9-3.2l118.8,79.1C373,142.9,374.5,150.1,371,155.4z"/>
	</g>
</g>
</svg>
