<?xml version="1.0" encoding="utf-8"?>
<!-- Generator: Adobe Illustrator 25.2.3, SVG Export Plug-In . SVG Version: 6.00 Build 0)  -->
<svg version="1.1" id="Lag_1" xmlns="http://www.w3.org/2000/svg" xmlns:xlink="http://www.w3.org/1999/xlink" x="0px" y="0px"
	 viewBox="0 0 512 512" style="enable-background:new 0 0 512 512;" xml:space="preserve">
<style type="text/css">
	.st0{display:none;fill:#FFFFFF;}
	.st1{fill:#121212;stroke:#D60B52;stroke-width:25;stroke-miterlimit:10;}
	.st2{fill:#121212;stroke:#00A19A;stroke-width:25;stroke-miterlimit:10;}
	.st3{fill:#D60B52;}
	.st4{font-family:'ComicSansMS-Bold';}
	.st5{font-size:42px;}
	.st6{fill:#00A19A;}
</style>
<g>
	<path class="st0" d="M447.6,512H64.4C28.8,512,0,483.2,0,447.6V64.4C0,28.8,28.8,0,64.4,0h383.1C483.2,0,512,28.8,512,64.4v383.1
		C512,483.2,483.2,512,447.6,512z"/>
	<path class="st1" d="M212.9,406.6L55.1,346.8c-10.4-3.9-15.6-15.6-11.7-26L103.2,163c3.9-10.4,15.6-15.6,26-11.7L287,211.1
		c10.4,3.9,15.6,15.6,11.7,26l-59.8,157.8C235,405.3,223.3,410.5,212.9,406.6z"/>
	<path class="st2" d="M465.4,296.4l-162.9,41.1c-11,2.8-22.2-3.9-24.9-14.9l-41.1-162.9c-2.8-11,3.9-22.2,14.9-24.9l162.9-41.1
		c11-2.8,22.2,3.9,24.9,14.9l41.1,162.9C483.1,282.4,476.4,293.6,465.4,296.4z"/>
</g>
<text transform="matrix(0.9351 0.3544 -0.3544 0.9351 102.2486 271.9617)" class="st3 st4 st5">TRICK</text>
<text transform="matrix(0.9696 -0.2447 0.2447 0.9696 311.1436 249.4868)" class="st6 st4 st5">DICE</text>
</svg>
